# xmcd
#
# Track frame offsets:
#	150
#	24050
#	43265
#	62645
#	98782
#	118270
#	161365
#	178997
#	195292
#	212041
#
# Disc length: 3099 seconds
#
# Revision: 2
# Processed by: cddbd v1.4PL0 Copyright (c) Steve Scherf et al.
# Submitted via: EasyCDDAExtractor 5.0.6
#
DISCID=820c190a
DTITLE=Charles Brown - Blues And Other Love Songs
DYEAR=2000
DGENRE=Blues
TTITLE0=Do You Want Me
TTITLE1=Fool That I Am
TTITLE2=Who's Beating My Time
TTITLE3=I Put Myself Together
TTITLE4=What A Life
TTITLE5=Mint Julep
TTITLE6=You Are My First Love
TTITLE7='Round Midnight
TTITLE8=Before The Evening Sun Sets
TTITLE9=I've Got A Right To Cry
EXTD=
EXTT0=
EXTT1=
EXTT2=
EXTT3=
EXTT4=
EXTT5=
EXTT6=
EXTT7=
EXTT8=
EXTT9=
PLAYORDER=
